<?xml version="1.0" standalone="no"?>
<!DOCTYPE svg PUBLIC "-//W3C//DTD SVG 20010904//EN"
 "http://www.w3.org/TR/2001/REC-SVG-20010904/DTD/svg10.dtd">
<svg version="1.0" xmlns="http://www.w3.org/2000/svg"
 width="280.000000pt" height="280.000000pt" viewBox="0 0 280.000000 280.000000"
 preserveAspectRatio="xMidYMid meet">
<metadata>
Created by potrace 1.14, written by Peter Selinger 2001-2017
</metadata>
<g transform="translate(0.000000,280.000000) scale(0.100000,-0.100000)"
fill="#000000" stroke="none">
<path d="M384 2520 l1 -155 410 -2 c532 -2 602 -6 780 -48 357 -84 595 -309
652 -615 2 -14 8 -43 13 -64 16 -71 5 -312 -19 -399 -74 -279 -254 -468 -543
-572 -51 -18 -107 -36 -123 -39 -17 -3 -67 -12 -112 -20 -91 -17 -217 -25
-420 -25 l-131 -1 0 -152 c1 -84 4 -155 9 -158 10 -7 338 -4 431 4 90 8 130
14 318 52 57 12 182 58 275 103 415 200 639 571 639 1056 -1 466 -195 807
-574 1011 -136 74 -357 142 -515 160 -27 3 -63 8 -80 11 -16 3 -251 6 -521 7
l-491 2 1 -156z"/>
<path d="M384 2185 c-2 -5 -2 -440 -1 -965 l2 -955 168 0 c144 -1 167 1 168
15 0 8 1 117 2 242 l0 227 281 0 c155 1 290 3 301 5 11 2 43 7 70 10 214 28
433 147 541 294 77 104 107 176 128 304 37 219 -25 440 -161 584 -128 136
-286 209 -518 241 -76 10 -977 9 -981 -2z m938 -319 c88 -13 102 -17 172 -51
112 -53 170 -118 201 -227 41 -145 -3 -302 -112 -398 -40 -36 -161 -96 -209
-104 -16 -3 -45 -8 -64 -11 -28 -5 -387 -9 -551 -6 l-36 1 0 398 c0 218 4 399
8 402 11 7 538 4 591 -4z"/>
</g>
</svg>
